HIERARCHY
ROOT Hips
{
	OFFSET 0.000000 0.000000 0.000000
	CHANNELS 6 Xposition Yposition Zposition Zrotation Yrotation Xrotation 
	JOINT LHipJoint
	{
		OFFSET 0.000000 0.000000 0.000000
		CHANNELS 3 Zrotation Yrotation Xrotation
		JOINT LeftUpLeg
		{
			OFFSET 1.363060 -1.794630 0.839290
			CHANNELS 3 Zrotation Yrotation Xrotation
			JOINT LeftLeg
			{
				OFFSET 2.448110 -6.726130 0.000000
				CHANNELS 3 Zrotation Yrotation Xrotation
				JOINT LeftFoot
				{
					OFFSET 2.562200 -7.039590 0.000000
					CHANNELS 3 Zrotation Yrotation Xrotation
					JOINT LeftToeBase
					{
						OFFSET 0.157640 -0.433110 2.322550
						CHANNELS 3 Zrotation Yrotation Xrotation
						End Site
						{
							OFFSET 0.000000 0.000000 0.000000
						}
					}
				}
			}
		}
	}
	JOINT RHipJoint
	{
		OFFSET 0.000000 0.000000 0.000000
		CHANNELS 3 Zrotation Yrotation Xrotation
		JOINT RightUpLeg
		{
			OFFSET -1.305520 -1.794630 0.839290
			CHANNELS 3 Zrotation Yrotation Xrotation
			JOINT RightLeg
			{
				OFFSET -2.542530 -6.985550 0.000000
				CHANNELS 3 Zrotation Yrotation Xrotation
				JOINT RightFoot
				{
					OFFSET -2.568260 -7.056230 0.000000
					CHANNELS 3 Zrotation Yrotation Xrotation
					JOINT RightToeBase
					{
						OFFSET -0.164730 -0.452590 2.363150
						CHANNELS 3 Zrotation Yrotation Xrotation
						End Site
						{
							OFFSET 0.000000 0.000000 0.000000
						}
					}
				}
			}
		}
	}
	JOINT LowerBack
	{
		OFFSET 0.000000 0.000000 0.000000
		CHANNELS 3 Zrotation Yrotation Xrotation
		JOINT Spine
		{
			OFFSET 0.028270 2.035590 -0.193380
			CHANNELS 3 Zrotation Yrotation Xrotation
			JOINT Spine1
			{
				OFFSET 0.056720 2.048850 -0.042750
				CHANNELS 3 Zrotation Yrotation Xrotation
				JOINT Neck
				{
					OFFSET 0.000000 0.000000 0.000000
					CHANNELS 3 Zrotation Yrotation Xrotation
					JOINT Neck1
					{
						OFFSET -0.054170 1.746240 0.172020
						CHANNELS 3 Zrotation Yrotation Xrotation
						JOINT Head
						{
							OFFSET 0.104070 1.761360 -0.123970
							CHANNELS 3 Zrotation Yrotation Xrotation
							End Site
							{
								OFFSET 0.000000 0.000000 0.000000
							}
						}
					}
				}
				JOINT LeftShoulder
				{
					OFFSET 0.000000 0.000000 0.000000
					CHANNELS 3 Zrotation Yrotation Xrotation
					JOINT LeftArm
					{
						OFFSET 3.362410 1.200890 -0.311210
						CHANNELS 3 Zrotation Yrotation Xrotation
						JOINT LeftForeArm
						{
							OFFSET 4.983000 -0.000000 -0.000000
							CHANNELS 3 Zrotation Yrotation Xrotation
							JOINT LeftHand
							{
								OFFSET 3.483560 -0.000000 -0.000000
								CHANNELS 3 Zrotation Yrotation Xrotation
								JOINT LeftFingerBase
								{
									OFFSET 0.000000 0.000000 0.000000
									CHANNELS 3 Zrotation Yrotation Xrotation
									JOINT LeftHandIndex1
									{
										OFFSET 0.715260 -0.000000 -0.000000
										CHANNELS 3 Zrotation Yrotation Xrotation
										End Site
										{
											OFFSET 0.000000 0.000000 0.000000
										}
									}
								}
								JOINT LThumb
								{
									OFFSET 0.000000 0.000000 0.000000
									CHANNELS 3 Zrotation Yrotation Xrotation
									End Site
									{
										OFFSET 0.000000 0.000000 0.000000
									}
								}
							}
						}
					}
				}
				JOINT RightShoulder
				{
					OFFSET 0.000000 0.000000 0.000000
					CHANNELS 3 Zrotation Yrotation Xrotation
					JOINT RightArm
					{
						OFFSET -3.136600 1.374050 -0.404650
						CHANNELS 3 Zrotation Yrotation Xrotation
						JOINT RightForeArm
						{
							OFFSET -5.241900 -0.000000 -0.000000
							CHANNELS 3 Zrotation Yrotation Xrotation
							JOINT RightHand
							{
								OFFSET -3.444170 -0.000000 -0.000000
								CHANNELS 3 Zrotation Yrotation Xrotation
								JOINT RightFingerBase
								{
									OFFSET 0.000000 0.000000 0.000000
									CHANNELS 3 Zrotation Yrotation Xrotation
									JOINT RightHandIndex1
									{
										OFFSET -0.622530 -0.000000 -0.000000
										CHANNELS 3 Zrotation Yrotation Xrotation
										End Site
										{
											OFFSET 0.000000 0.000000 0.000000
										}
									}
								}
								JOINT RThumb
								{
									OFFSET 0.000000 0.000000 0.000000
									CHANNELS 3 Zrotation Yrotation Xrotation
									End Site
									{
										OFFSET 0.000000 0.000000 0.000000
									}
								}
							}
						}
					}
				}
			}
		}
	}
}
MOTION
Frames: 12
Frame Time: 0.008333
-35.357861 17.563007 0.618797 -142.506354 83.109577 -142.061773 5.846418 -2.056437 -0.574087 -17.585321 -22.661551 -22.391515 -0.928037 12.053727 26.858321 -1.064392 7.377549 -7.776447 2.354200 -9.567800 -27.588000 -8.210470 -0.304458 -2.853356 38.515677 -9.615142 22.909722 -4.037848 -12.889411 38.912414 7.087084 -29.484301 -6.291617 -0.079900 1.823000 -5.016900 2.555105 1.503408 12.090041 1.793031 2.491090 1.101448 -5.688772 1.872925 4.197082 0.309287 1.980614 -11.669204 7.952058 1.329800 5.744601 -0.988200 0.789400 3.543500 17.287877 8.316892 0.238148 -108.798209 48.655040 12.582455 87.926979 -70.276418 -73.838906 0.314903 -4.747500 -21.605240 34.174947 9.036420 10.028300 -7.125000 0.000000 0.000000 8.065200 47.114100 0.423400 -17.537117 -7.712098 1.015646 87.067690 -13.951205 57.643930 -126.867239 59.270836 -93.483515 0.067201 0.785991 -24.500109 -38.158614 25.271581 -18.135100 7.125000 0.000000 0.000000 -5.493100 -0.139300 -5.505100 
-34.482174 17.407442 0.603217 -149.790881 82.862948 -149.613537 5.783232 -1.861914 -0.490083 -19.047614 -21.931700 -20.742571 -0.791874 12.001066 27.327488 -0.307465 4.791559 -7.149513 2.213200 -9.296700 -26.727900 -8.339189 -0.288764 -2.849152 37.715050 -9.437570 18.970985 -6.330621 -15.257468 48.087689 6.968489 -29.120177 -8.399109 -0.045800 1.380500 -3.796400 1.868964 1.128931 12.103006 1.729401 1.940797 1.076836 -5.779383 1.580032 4.133949 0.403553 2.089591 -11.446639 8.120065 1.424262 5.809074 -0.935700 0.849400 3.493300 17.082568 8.299837 0.442156 -108.614734 45.694992 13.569453 87.961737 -69.930976 -75.590871 -0.418437 -3.693421 -23.209486 19.909732 -4.022265 -0.240000 -7.125000 0.000000 0.000000 -3.713300 29.325100 1.421500 -17.566363 -7.773661 0.980537 87.158297 -15.523765 57.986759 -123.950783 60.451353 -91.461383 0.143804 0.876225 -25.109343 -37.821330 24.534638 -17.462900 7.125000 0.000000 0.000000 -5.534200 -1.161400 -5.446500 
-33.629684 17.197637 0.591908 -160.638215 83.265753 -160.739176 5.966148 -1.657486 -0.368686 -21.332137 -21.574744 -19.939014 -0.183494 12.929700 30.232821 -0.323642 4.567051 -4.304994 3.160400 -10.950300 -32.112400 -8.489129 -0.204784 -2.900373 35.641645 -9.225873 15.306174 -9.000097 -17.135220 57.185665 6.532699 -27.802094 -7.092679 -0.212600 2.968300 -8.190400 0.177256 0.996692 12.446551 1.602799 1.591663 1.021416 -5.721012 1.367668 3.749606 0.792540 2.177454 -11.284711 8.210082 1.453985 5.938239 -1.051000 0.878400 3.553200 16.804232 8.226623 0.567494 -108.116485 42.412743 15.045107 87.600647 -69.383033 -75.642966 -0.492343 -3.619398 -23.359760 18.477260 -5.055509 -0.653600 -7.125000 0.000000 0.000000 -4.752800 28.096000 1.960600 -17.560877 -7.751779 0.954139 87.465451 -17.214847 57.989111 -120.346403 61.739706 -89.015323 0.228463 1.021504 -25.698636 -37.036229 23.422019 -16.278400 7.125000 0.000000 0.000000 -5.404100 -2.800900 -5.156900 
-32.802236 17.014029 0.575751 -174.130665 83.621480 -174.390514 6.121857 -1.291292 -0.276596 -24.350749 -19.025936 -18.878877 0.514379 13.700255 33.228104 -0.089533 3.480694 -3.088675 1.063000 -6.555100 -18.403700 -8.540813 -0.128789 -2.896409 33.032707 -8.450922 11.194161 -11.610212 -18.450232 65.444873 6.120131 -26.444040 -6.693952 -0.326300 3.671400 -10.154100 -1.818831 0.841977 13.034996 1.483525 1.132357 0.891259 -5.362335 1.080153 2.949847 0.861451 2.398286 -10.735392 8.369791 1.688810 5.914336 -1.038200 0.996100 3.438100 16.523110 8.084373 0.775703 -107.990232 38.985150 16.257356 88.593242 -69.257100 -76.260312 -0.223671 -3.762033 -22.586597 19.356824 -3.021170 0.210900 -7.125000 0.000000 0.000000 -4.344900 30.550400 1.537200 -17.569359 -7.697340 0.910076 87.754192 -18.557721 57.923504 -114.179593 63.402880 -84.916506 0.382706 1.248982 -26.096556 -36.107191 23.492531 -15.811000 7.125000 0.000000 0.000000 -5.020700 -3.161000 -4.754800 
-32.001447 16.797647 0.566288 160.502636 83.841423 159.018764 6.598000 -0.894056 -0.153888 -28.908552 -17.604715 -16.980595 1.268531 14.497424 36.308512 0.247627 1.953174 -2.655276 0.102600 -2.065400 -5.686400 -8.325588 0.020172 -2.978556 28.705775 -7.488788 8.240501 -14.228392 -19.202536 73.322748 5.456103 -24.095289 -6.719036 -0.047000 1.398400 -3.845800 -5.069535 1.023956 15.037580 1.202497 0.857122 0.883377 -4.802788 0.945662 1.768145 0.558364 2.642404 -9.836644 8.888413 1.939448 5.454719 -0.726900 1.104500 3.014900 16.127804 7.798505 0.906673 -107.299131 35.136211 18.219121 89.529950 -68.948643 -76.782680 -0.353059 -3.806105 -21.539519 20.120119 -4.030630 -0.165300 -7.125000 0.000000 0.000000 -3.638500 29.528100 1.375200 -17.597403 -7.519811 0.916303 88.409502 -20.121511 57.506667 -105.987769 64.760126 -79.612494 0.630326 1.549381 -25.592997 -35.057696 24.119382 -15.649700 7.125000 0.000000 0.000000 -4.534000 -2.960400 -4.307500 
-31.232394 16.603075 0.578059 143.133045 82.116214 141.141591 7.068481 -0.743332 -0.159542 -33.145308 -16.668556 -14.886608 2.026675 15.205938 39.184172 0.573479 0.822064 -5.795382 0.173500 -2.683000 -7.397400 -8.137136 -0.047352 -2.905167 24.713078 -6.249121 3.580522 -16.623875 -19.731966 80.490285 4.703181 -21.365317 -8.659931 -0.559500 4.791200 -13.314100 -8.176980 1.042653 16.456221 0.947164 0.334549 0.872952 -4.224492 0.654025 1.035571 0.507397 2.676219 -9.625985 9.113065 1.943052 5.011930 -0.662600 1.077900 2.807000 15.699340 7.344181 0.988576 -105.720882 30.116021 21.644756 91.993773 -68.806091 -77.952985 -0.370197 -3.903503 -20.233144 22.436761 -4.027145 -0.098600 -7.125000 0.000000 0.000000 -1.834900 29.737200 0.683400 -17.548281 -7.314047 0.849639 89.458664 -22.058170 56.687874 -96.270711 65.021653 -73.336196 0.959721 1.912855 -23.045405 -35.456079 23.305674 -15.293900 7.125000 0.000000 0.000000 -5.255400 -4.160600 -4.881200 
-30.439337 16.494595 0.576097 142.078267 81.250712 140.279716 7.173213 -0.576042 -0.122112 -34.609577 -15.979473 -12.725098 2.515896 15.470040 40.789083 0.996685 -0.350434 -8.651250 0.141000 -2.420000 -6.667800 -8.251458 -0.062394 -2.773278 23.558822 -4.630490 -1.828007 -18.553032 -20.203951 86.158720 4.312078 -20.026168 -10.444966 -0.414000 4.130200 -11.443300 -8.845275 0.926024 16.949322 0.885886 0.025523 0.804465 -4.076356 0.444158 0.520641 0.373612 2.601067 -9.435197 9.369475 1.822736 4.605310 -0.501100 0.998300 2.601800 15.420567 6.779529 1.048564 -103.850339 24.739909 25.775575 96.522860 -68.799666 -80.342550 -0.238069 -3.806207 -19.437305 23.208774 -3.518547 0.129200 -7.125000 0.000000 0.000000 -1.397700 30.286300 0.502200 -17.531390 -7.074560 0.655173 90.510095 -24.740940 55.756179 -86.872653 63.772665 -66.651570 1.329923 2.118038 -19.262934 -37.149451 23.631277 -16.356400 7.125000 0.000000 0.000000 -6.499500 -3.640100 -6.113900 
-29.636355 16.431354 0.551978 147.995239 81.347562 147.375363 7.057719 -0.430008 -0.080460 -34.157490 -16.166372 -10.676414 2.667514 15.380343 41.105201 1.316696 -0.867457 -11.269856 0.100800 -2.047100 -5.635800 -8.571320 0.010441 -2.514356 24.470126 -1.963632 -8.544035 -19.968446 -20.796980 90.193608 4.338543 -20.209451 -11.755530 -0.502000 4.542300 -12.607700 -7.941524 0.598701 15.898992 1.069427 -0.176428 0.702805 -3.709965 0.197655 0.499859 -0.106532 2.609777 -8.964178 9.270445 1.890747 4.112497 -0.431600 0.971900 2.186100 15.341158 6.239989 1.165620 -103.122708 19.421946 29.641070 102.957358 -68.546103 -83.809180 -0.073446 -3.555394 -18.358901 22.527114 -3.393103 0.096400 -7.125000 0.000000 0.000000 -2.183800 30.215000 0.788600 -17.544707 -6.947788 0.449232 90.623893 -27.477688 55.420633 -80.964877 62.400436 -62.001628 1.425541 2.295945 -19.057919 -38.407108 22.290954 -15.990400 7.125000 0.000000 0.000000 -7.673800 -5.109200 -7.024500 
-28.825987 16.411158 0.545861 149.964924 81.438003 150.210508 6.892817 -0.206217 -0.069487 -34.105948 -15.354126 -7.873406 2.554503 14.884724 40.331441 1.641531 -1.486972 -13.073139 0.086500 -1.897300 -5.222000 -8.829124 0.103992 -2.195440 24.695389 1.168356 -14.586270 -20.857792 -21.351533 92.747235 4.124954 -19.731380 -14.075056 -0.305900 3.555700 -9.829900 -7.632809 0.265585 14.956769 1.156767 -0.473468 0.633776 -3.525257 -0.081153 0.678546 0.071920 2.721007 -8.994260 8.924534 2.047608 4.074117 -0.676400 1.018200 2.185400 15.350758 5.752152 1.121119 -102.309313 14.579120 33.294840 110.841849 -67.219834 -88.020727 0.137389 -3.205786 -17.301853 20.812711 -3.372271 -0.025700 -7.125000 0.000000 0.000000 -3.830500 29.899500 1.414100 -17.550967 -6.748054 0.335911 90.431177 -29.725185 55.663298 -77.961113 61.638515 -59.637600 1.286143 2.582807 -25.603317 -37.476064 21.074320 -14.672000 7.125000 0.000000 0.000000 -7.462100 -6.847200 -6.576700 
-28.002810 16.451319 0.554748 151.312323 80.901772 152.450930 6.697842 0.030672 -0.050276 -34.187514 -14.405129 -4.616227 2.199160 14.053449 38.520940 2.005512 -2.587435 -13.636540 0.040600 -1.301000 -3.577400 -8.990512 0.191891 -1.834126 24.239849 4.084933 -20.336673 -21.066434 -21.909516 93.264739 4.075969 -19.637585 -14.604754 -0.451300 4.309800 -11.949900 -7.738126 -0.257486 14.005028 1.232767 -1.091074 0.510460 -3.200532 -0.528383 0.814667 0.050381 2.869832 -9.253029 8.993276 2.263836 4.651886 -0.669000 1.176600 2.582400 15.330905 5.393153 1.030007 -101.826723 10.601468 36.259708 116.356943 -65.664184 -90.991339 0.108817 -2.944355 -14.785248 20.810406 -5.018401 -0.766000 -7.125000 0.000000 0.000000 -3.911300 27.883500 1.631500 -17.607624 -6.528633 0.198823 89.644002 -31.844171 56.820991 -76.135103 61.184685 -58.214653 1.044764 2.859753 -32.451636 -37.114372 19.171637 -13.119200 7.125000 0.000000 0.000000 -7.690600 -9.274400 -6.410200 
-27.144319 16.535795 0.555902 152.556287 80.104533 154.155779 6.514723 0.298204 -0.003476 -34.597872 -13.683315 -0.261237 1.644605 12.896079 35.931245 1.741909 -1.809724 -12.982845 0.127600 -2.302300 -6.342000 -9.069813 0.233775 -1.568140 23.346061 6.343806 -24.733647 -20.575532 -22.378005 91.818660 4.187328 -20.012057 -14.367468 -0.605200 4.979500 -13.850200 -7.901512 -0.870993 13.166450 1.340104 -1.828549 0.452119 -2.846476 -1.031035 1.085466 0.523531 3.157194 -9.113897 8.438441 2.642920 5.022969 -1.136900 1.351900 2.765800 15.421949 5.090885 0.994887 -101.631532 7.787728 39.011933 123.955587 -63.029786 -95.185277 0.246554 -2.642223 -12.431489 20.616350 -5.329885 -0.966000 -7.125000 0.000000 0.000000 -4.297100 27.275300 1.855000 -17.635011 -6.424982 0.078318 88.395239 -33.980851 58.178660 -74.663285 60.821595 -56.861782 0.951455 2.961593 -35.622597 -38.632804 18.371729 -13.173000 7.125000 0.000000 0.000000 -8.869500 -9.935100 -7.296500 
-26.260438 16.675434 0.566288 152.048761 79.452627 154.867103 6.353286 0.502965 0.030866 -34.959751 -13.264267 3.564657 0.965589 11.614929 32.825918 0.933269 0.468371 -10.928850 0.393900 -4.029700 -11.160300 -9.097525 0.293697 -1.270586 21.981962 8.969726 -29.269596 -19.375786 -22.854640 88.511973 3.832322 -18.654914 -13.497475 -1.168600 6.862000 -19.307200 -8.468185 -1.508159 11.447193 1.484052 -2.610824 0.308722 -2.125491 -1.572876 1.469199 0.555323 3.550844 -8.771064 8.164269 3.190618 5.271240 -1.349700 1.615800 2.777700 15.512107 4.891916 1.002739 -101.573077 6.062728 41.201138 130.330984 -60.277059 -98.700806 0.302421 -2.376088 -11.011449 21.874279 -6.637752 -1.646700 -7.125000 0.000000 0.000000 -3.446100 25.592200 1.622200 -17.705756 -6.438312 -0.074482 86.640142 -36.190454 59.525314 -73.581017 60.618409 -55.787135 0.990268 2.928358 -34.002279 -39.897824 17.537830 -12.992900 7.125000 0.000000 0.000000 -9.820600 -10.739700 -7.939100 
